<svg version="1.1" id="Layer_1" xmlns="http://www.w3.org/2000/svg" xmlns:xlink="http://www.w3.org/1999/xlink" x="0px" y="0px"
	 width="100%" viewBox="0 0 500 500" enable-background="new 0 0 500 500" xml:space="preserve">
<path fill="#000000" opacity="1.000000" stroke="none" 
	d="
M501.000000,176.000000 
	C501.000000,284.666626 501.000000,392.833282 501.000000,500.999939 
	C334.333405,500.999939 167.666794,500.999939 1.000148,500.999969 
	C1.000098,334.333435 1.000098,167.666870 1.000049,1.000237 
	C167.666519,1.000158 334.333038,1.000158 500.999786,1.000079 
	C501.000000,59.166668 501.000000,117.333336 501.000000,176.000000 
M98.190010,148.024185 
	C94.451683,149.392181 90.713348,150.760193 86.292343,152.239670 
	C84.180099,153.446106 82.067848,154.652527 79.237244,155.999146 
	C36.907936,175.547989 25.625710,233.349670 48.788391,268.156586 
	C53.520859,273.117188 58.253326,278.077820 63.219044,283.682220 
	C66.456825,285.803314 69.694611,287.924408 73.226418,290.674316 
	C76.490387,292.383606 79.754356,294.092896 83.472206,295.939331 
	C83.472206,295.939331 83.938812,296.023560 84.124466,296.512909 
	C84.402657,296.714539 84.680847,296.916199 85.358910,297.726807 
	C87.910904,298.425323 90.462898,299.123840 93.449699,299.961151 
	C93.449699,299.961151 93.898727,300.042969 94.086273,300.517395 
	C94.383797,300.621368 94.681328,300.725311 95.684784,300.977661 
	C96.803139,301.256989 97.921494,301.536316 99.822166,301.979584 
	C111.657814,305.386139 123.734810,306.524017 136.824600,305.978333 
	C138.201523,305.911011 139.578430,305.843689 141.715073,305.901123 
	C142.481369,305.859375 143.247665,305.817627 144.515137,305.840088 
	C144.701340,305.571960 144.887543,305.303833 145.855865,304.975525 
	C146.899185,304.925171 147.942505,304.874786 149.824570,304.968262 
	C155.291336,303.957825 160.808304,303.161438 166.214798,301.893951 
	C178.799515,298.943665 190.943527,294.766724 202.732651,287.976868 
	C203.161514,287.916077 203.590378,287.855255 204.523529,287.839478 
	C204.715347,287.572693 204.907181,287.305939 205.739944,286.744415 
	C211.531769,283.478271 217.395660,280.331726 223.088409,276.901154 
	C226.503632,274.843048 229.651566,272.341461 232.988846,270.867096 
	C235.116348,285.133087 240.512924,297.684204 252.234131,307.683716 
	C260.942902,315.315338 271.114105,320.254669 282.859070,324.001770 
	C287.567566,324.613922 292.276031,325.226074 297.913971,325.983032 
	C309.679321,325.974609 321.445068,325.918427 333.209686,326.006104 
	C335.106232,326.020233 336.998047,326.675079 338.992310,327.949860 
	C338.670013,333.700195 338.181213,339.447144 338.065430,345.201630 
	C337.901520,353.345947 337.954468,361.496277 338.016418,369.643250 
	C338.327179,410.492096 338.650635,451.340881 339.082672,492.188538 
	C339.098907,493.724243 340.282166,495.247681 341.841919,497.009430 
	C350.044891,496.971558 358.259277,497.189117 366.447510,496.822144 
	C374.255341,496.472229 382.035919,495.512878 390.578339,494.557343 
	C391.042847,493.236084 391.883484,491.921448 391.906891,490.592407 
	C392.010468,484.719940 391.878906,478.843384 391.921204,472.039856 
	C392.271332,465.273468 392.859467,458.509277 392.922302,451.740234 
	C393.054871,437.461090 392.912476,423.179443 392.980438,407.979828 
	C392.988892,391.166809 393.022919,374.353729 392.962585,357.540955 
	C392.957123,356.017426 392.344604,354.496033 391.993286,352.039886 
	C391.976868,348.887024 391.719574,345.712891 391.996094,342.585938 
	C392.512329,336.748077 393.338593,330.937622 394.884552,325.036743 
	C397.290802,325.323669 399.702240,325.893738 402.102386,325.849396 
	C413.698334,325.635132 425.305115,325.481506 436.875305,324.772461 
	C439.693817,324.599731 442.388733,322.409912 445.828125,321.035004 
	C446.759857,319.418518 448.447449,317.825836 448.499207,316.181641 
	C448.807983,306.375183 449.125488,296.538940 448.671631,286.748322 
	C448.325043,279.271088 444.100220,276.156189 436.422119,276.154419 
	C423.266632,276.151367 410.111084,276.102875 396.955750,276.039124 
	C395.522064,276.032166 394.089478,275.799561 392.399048,275.648682 
	C392.628204,274.570801 392.886475,273.947571 392.873657,273.329987 
	C392.552460,257.826263 392.370667,242.316391 391.751038,226.824142 
	C391.575378,222.431885 388.275452,220.101730 383.872192,220.082520 
	C373.197937,220.035950 362.523010,220.145538 351.171692,220.110535 
	C350.081207,220.711716 348.990723,221.312897 347.155884,222.009552 
	C341.787323,223.633728 338.893860,228.347641 339.024567,235.788910 
	C339.259827,249.184891 339.634827,262.578430 339.020416,275.942627 
	C326.068878,275.963257 313.117310,275.995361 300.165771,276.000610 
	C291.026703,276.004333 284.997375,272.120392 283.134705,263.210632 
	C281.768524,256.675964 282.311218,249.742203 282.747742,242.545212 
	C282.828278,217.380508 282.916565,192.215820 282.947906,167.051056 
	C282.948730,166.373016 282.333405,165.694229 281.973938,164.076950 
	C281.963989,147.013229 282.061218,129.948502 281.897919,112.886246 
	C281.818909,104.631401 281.346466,96.375832 280.880951,88.130257 
	C280.221771,76.454620 277.497375,65.106514 271.790436,55.014801 
	C261.892761,37.512482 245.363083,27.762777 227.105362,21.428581 
	C205.845428,14.052818 183.545441,13.305824 161.220612,14.124475 
	C160.460526,14.152349 159.716507,14.618821 158.066833,15.002030 
	C153.713669,15.377268 149.360519,15.752505 144.178238,16.036840 
	C132.439621,19.084116 120.701012,22.131390 108.222427,25.091118 
	C104.467468,26.781153 100.712517,28.471186 96.270851,30.310839 
	C90.141319,34.191093 84.011780,38.071350 77.264275,42.236031 
	C67.904205,49.508308 59.996426,57.996918 54.307281,69.226799 
	C52.341850,74.165833 49.968727,78.989838 48.532913,84.078308 
	C47.258411,88.595078 44.893650,93.517204 49.236946,98.676384 
	C50.730545,100.396950 51.977180,103.246338 53.761776,103.636765 
	C60.418556,105.093109 67.251793,105.742897 74.738693,106.903030 
	C75.482674,106.865738 76.226654,106.828445 77.719254,106.910866 
	C78.476677,106.944489 79.234108,106.978104 80.537376,107.620316 
	C84.668159,107.030746 88.798950,106.441177 93.669289,105.971375 
	C95.713364,104.245972 98.980957,102.875580 99.601456,100.737114 
	C103.412979,87.600975 109.799812,76.194923 120.762985,66.928482 
	C131.410049,59.740746 143.386520,56.584179 155.978622,57.123943 
	C168.687286,57.668701 181.339783,59.523380 194.682861,61.161457 
	C202.242172,63.862362 210.115875,65.954559 216.234131,72.707924 
	C218.393143,75.910072 221.263016,78.845139 222.584381,82.362022 
	C227.507355,95.464775 229.699051,108.986221 226.234100,122.996101 
	C225.494431,123.385651 224.754761,123.775200 223.223053,124.036522 
	C221.808945,124.378670 220.388000,124.694939 218.981888,125.067291 
	C211.322433,127.095566 203.666641,129.137650 195.307983,131.051575 
	C189.875046,132.105469 184.442123,133.159363 178.311203,134.093491 
	C177.212570,134.454636 176.113937,134.815781 174.152878,135.038666 
	C165.105377,136.083206 156.057877,137.127731 146.391556,138.311325 
	C142.359482,138.906921 138.299591,139.357895 134.300842,140.126801 
	C124.518669,142.007797 114.764748,144.035721 104.278137,146.046906 
	C103.190163,146.437317 102.102196,146.827713 100.425034,147.090668 
	C99.938385,147.385361 99.451736,147.680038 98.190010,148.024185 
z"/>
<path fill="#70655F" opacity="1.000000" stroke="none" 
	d="
M445.140472,321.147552 
	C442.388733,322.409912 439.693817,324.599731 436.875305,324.772461 
	C425.305115,325.481506 413.698334,325.635132 402.102386,325.849396 
	C399.702240,325.893738 397.290802,325.323669 394.216736,324.891235 
	C392.767548,324.543610 391.986206,324.341553 390.892273,323.945251 
	C389.407166,324.420258 387.524567,324.850586 387.202972,325.806183 
	C386.421661,328.127930 386.067810,330.693207 386.062775,333.161438 
	C385.997375,365.121399 385.997223,397.081573 386.052368,429.041626 
	C386.061218,434.170013 386.572083,439.297333 386.588135,444.425995 
	C386.636597,459.879089 386.511810,475.332886 386.618500,490.785278 
	C386.626007,491.870789 387.970520,492.947052 388.899811,494.134644 
	C389.380798,494.392822 389.621521,494.586090 389.828461,494.821442 
	C382.035919,495.512878 374.255341,496.472229 366.447510,496.822144 
	C358.259277,497.189117 350.044891,496.971558 341.524414,496.569702 
	C341.444855,494.743408 341.682770,493.356873 341.962280,491.645996 
	C341.997345,490.886505 341.990814,490.451385 342.038025,489.567322 
	C342.056152,486.409210 342.020538,483.700073 342.018066,480.523865 
	C342.060303,475.241760 342.070068,470.426758 342.078400,465.611725 
	C342.140656,429.749451 342.202545,393.887207 342.617859,357.982849 
	C344.634827,356.342194 346.881866,355.030182 347.838013,353.083984 
	C349.697937,349.298035 350.392883,344.921844 352.365326,341.212921 
	C356.026794,334.327972 360.251770,327.742218 364.259949,321.042542 
	C365.011169,319.786865 365.792694,318.542511 366.652283,317.359802 
	C368.811340,314.389282 371.363525,311.646484 373.133698,308.464966 
	C375.780670,303.707611 377.658936,298.523071 380.297546,293.760345 
	C382.925415,289.017029 386.087799,284.569885 389.483459,279.988953 
	C405.609192,279.963806 421.267242,279.942535 437.194824,280.163086 
	C438.821747,280.916840 440.179169,281.428741 441.665741,281.978729 
	C441.960388,282.121918 442.047394,282.272400 442.106567,282.851105 
	C442.938385,284.479614 443.719574,285.725250 444.602722,287.221313 
	C444.741333,288.007751 444.778046,288.543762 444.507263,289.279053 
	C444.020477,297.311676 443.827789,305.144775 443.711395,312.979004 
	C443.706818,313.286255 444.431061,313.604340 444.836609,314.188354 
	C444.740509,314.984833 444.623444,315.510284 444.357971,316.131897 
	C444.188843,316.548248 444.168152,316.868500 444.179260,317.530518 
	C444.520905,318.964050 444.830688,320.055786 445.140472,321.147552 
z"/>
<path fill="#72655E" opacity="1.000000" stroke="none" 
	d="
M92.929733,105.851608 
	C88.798950,106.441177 84.668159,107.030746 80.625168,107.161095 
	C83.144722,106.347824 85.576485,105.993774 88.008255,105.639725 
	C85.573639,104.623146 83.020424,104.478127 80.530388,104.002449 
	C70.353783,102.058426 60.196461,100.013397 50.031540,97.555984 
	C49.121494,87.533241 53.603558,79.420601 57.314606,70.786819 
	C63.404179,59.688908 71.577507,50.808514 81.320168,42.863922 
	C86.772804,39.501129 91.911758,36.272747 97.397690,32.961136 
	C101.522652,30.927822 105.300636,28.977737 109.500748,27.028214 
	C110.421387,27.023560 110.940834,27.109190 111.415321,26.999796 
	C122.328094,24.483871 133.246094,21.987471 144.114029,19.289587 
	C144.640961,19.158779 144.719833,17.223000 145.007355,16.127743 
	C149.360519,15.752505 153.713669,15.377268 158.853088,15.140744 
	C164.055527,15.824902 168.460205,16.501204 172.890091,16.890789 
	C185.246811,17.977497 197.613968,18.945383 210.033157,20.313950 
	C210.971710,23.389109 214.147324,25.522840 211.319016,29.099497 
	C208.164322,33.088917 205.392822,37.429279 202.857864,41.848255 
	C199.941635,46.931881 199.080414,53.202179 193.572815,57.020302 
	C179.956314,56.005287 166.776154,54.424194 153.569458,54.157204 
	C140.003632,53.882957 127.082130,57.040257 115.727142,65.164764 
	C109.820755,69.390800 104.777580,74.224564 102.042839,81.103600 
	C102.012749,81.080429 102.053604,81.016403 101.776047,81.227737 
	C101.013290,82.745796 100.528084,84.052536 100.038895,85.717552 
	C97.943565,92.767303 91.491631,97.892059 92.929733,105.851608 
z"/>
<path fill="#71665F" opacity="1.000000" stroke="none" 
	d="
M104.999451,146.004517 
	C114.764748,144.035721 124.518669,142.007797 134.300842,140.126801 
	C138.299591,139.357895 142.359482,138.906921 146.731033,138.592529 
	C146.538544,141.351334 146.462906,144.059982 145.355789,146.246323 
	C144.056320,148.812469 141.737839,150.840958 140.087555,153.257156 
	C138.409851,155.713516 137.546341,159.009842 135.383423,160.797684 
	C128.930847,166.131302 127.007355,173.273392 125.656097,181.026321 
	C115.798515,183.300186 107.103760,187.272415 99.762878,193.836365 
	C98.513428,194.953598 97.935173,196.821457 96.962296,198.661072 
	C96.107246,200.024185 95.306076,201.047684 94.571465,202.116913 
	C91.063896,207.222198 85.868378,211.768372 88.583542,219.233017 
	C88.016418,220.920731 87.375595,222.486679 87.557739,223.950241 
	C88.225601,229.316666 89.167076,234.649063 89.748352,240.219482 
	C88.125061,241.621979 86.328186,242.546661 85.465042,244.018814 
	C80.947769,251.723358 76.748070,259.613586 72.268593,267.341095 
	C70.190331,270.926300 68.828011,275.463623 63.214794,275.280426 
	C62.405506,275.253998 61.546299,276.757355 60.434486,277.345215 
	C56.778534,273.075531 53.398300,269.013367 49.829655,264.656921 
	C47.200836,258.976349 43.733753,253.811920 42.512859,248.162094 
	C38.876701,231.335342 39.020645,214.503357 45.405544,198.137680 
	C52.150517,180.849060 63.900185,168.000778 80.315323,158.876556 
	C82.778694,157.531006 84.918671,156.286285 87.412224,154.967087 
	C92.194984,153.183121 96.699188,151.638611 101.013672,149.676834 
	C102.575890,148.966537 103.684082,147.257706 104.999451,146.004517 
z"/>
<path fill="#988D84" opacity="1.000000" stroke="none" 
	d="
M251.971893,307.055237 
	C240.512924,297.684204 235.116348,285.133087 233.156052,270.202148 
	C234.070450,268.578308 234.817642,267.619446 236.312241,265.701385 
	C236.983002,268.875336 237.610077,270.883789 237.802322,272.933075 
	C238.364731,278.927734 239.068939,284.673676 243.839783,289.268280 
	C246.267548,291.606354 247.545059,291.237122 248.717560,289.800140 
	C248.127579,285.293793 247.390930,281.611603 247.317139,277.916168 
	C247.295059,276.810852 249.059296,275.600250 250.126022,274.562134 
	C251.232590,273.485260 252.485703,272.558929 253.674744,271.566772 
	C245.509140,272.300232 244.713394,271.593658 243.918594,263.479340 
	C243.765457,261.916138 243.310425,259.456909 242.326920,259.058258 
	C237.652451,257.163391 237.942764,253.431152 237.932114,249.552917 
	C237.924179,246.667953 237.176178,244.658920 233.364639,245.892639 
	C232.170761,246.279053 229.778244,245.327118 229.035339,244.237289 
	C227.600601,242.132568 227.025818,239.459244 225.952698,237.085754 
	C224.719360,234.357803 223.332291,231.699371 222.089355,228.658081 
	C223.771469,224.196457 225.376205,220.087479 227.123230,215.646210 
	C228.285797,211.847855 230.017624,208.418732 230.199814,204.909149 
	C230.887497,191.662674 231.198990,178.390671 231.262482,165.126358 
	C231.269424,163.675949 228.764862,162.213547 227.425171,160.756714 
	C226.294128,161.869019 225.163086,162.981339 223.839783,164.418854 
	C221.443375,165.195419 219.239197,165.646790 216.776184,165.901855 
	C215.690048,165.495377 214.862747,165.285217 214.232117,164.789246 
	C215.827026,163.683105 217.156540,162.699234 218.637939,162.076782 
	C221.642960,160.814148 223.216812,158.791473 222.336533,155.508560 
	C221.626724,152.861374 220.443817,150.335815 219.809250,147.675568 
	C219.395782,145.942108 218.878586,143.662872 219.636185,142.322311 
	C222.466736,137.313797 222.459213,132.265579 221.247894,126.864655 
	C221.995636,126.490646 222.492798,126.238731 223.090851,126.317841 
	C228.412094,130.169922 230.453445,135.449829 230.893982,141.379791 
	C231.241638,146.059586 233.088470,149.821075 236.060822,153.365372 
	C238.868805,156.713654 239.651840,160.723618 238.519760,165.103683 
	C237.603806,168.647583 239.104736,171.218658 242.302185,172.913467 
	C248.098511,175.985840 248.891022,181.598953 249.379486,187.275131 
	C249.534225,189.073364 249.031708,190.923416 249.140152,192.731140 
	C249.705078,202.147385 249.967377,211.607681 251.129349,220.953873 
	C252.036224,228.248138 254.075531,235.404495 255.699036,242.602402 
	C255.866714,243.345825 256.629639,243.955536 257.118225,244.625961 
	C260.023041,248.612213 264.050598,252.210709 265.589417,256.668365 
	C268.399628,264.809326 272.007660,272.028778 278.794250,277.491730 
	C279.649780,278.180389 280.143066,279.377991 280.667572,280.409271 
	C283.871338,286.708649 290.402130,288.662506 296.093384,285.607513 
	C296.093384,283.435944 296.093384,281.681244 296.553528,279.869690 
	C306.006714,279.894653 314.999695,279.976471 323.980865,280.428955 
	C321.974915,283.703888 320.316650,286.925323 317.926849,289.456024 
	C308.979797,298.930542 300.903198,308.861847 297.538147,322.005859 
	C292.717224,321.674042 288.355133,321.339996 283.632935,320.924164 
	C273.359680,317.355286 264.044464,312.742249 255.691208,306.290222 
	C254.248901,305.176208 252.544601,303.581543 251.971893,307.055237 
M250.439545,301.959808 
	C250.439545,301.959808 250.523270,301.927948 250.439545,301.959808 
z"/>
<path fill="#8F827B" opacity="1.000000" stroke="none" 
	d="
M202.083969,288.037140 
	C190.943527,294.766724 178.799515,298.943665 166.214798,301.893951 
	C160.808304,303.161438 155.291336,303.957825 149.549927,304.637207 
	C150.162750,303.660980 151.050201,303.015808 151.937668,302.370667 
	C135.413116,302.279724 119.187706,301.163574 102.952400,300.217041 
	C101.683594,300.143097 100.345657,301.254913 99.039841,301.815613 
	C97.921494,301.536316 96.803139,301.256989 95.164581,300.755127 
	C94.416176,300.338379 94.167625,300.175171 93.898727,300.042969 
	C93.898727,300.042969 93.449699,299.961151 93.440712,299.580139 
	C97.953293,298.801147 102.474861,298.403168 107.020309,298.044495 
	C107.044182,298.083801 107.005348,297.996368 107.007545,297.600830 
	C108.582542,294.506592 109.584846,291.132568 111.833031,289.233368 
	C119.148544,283.053436 127.142113,277.620087 131.474426,268.411682 
	C133.242905,268.516327 134.603882,268.561157 136.282700,268.877960 
	C144.229706,270.437469 151.479996,269.679199 158.407684,265.116150 
	C159.524002,265.107910 160.270020,265.163391 160.985382,265.509705 
	C161.789215,266.470245 162.746307,267.829346 163.439804,267.705994 
	C173.445694,265.926636 183.662170,264.826263 192.545013,259.132294 
	C194.161392,258.096161 196.173965,257.678162 198.163452,257.279022 
	C199.833633,257.824310 201.364090,257.979675 202.849243,258.328156 
	C204.696640,258.761658 206.936111,258.849609 208.254562,259.970764 
	C212.721588,263.769287 216.856888,267.957947 221.140320,272.017761 
	C219.204056,272.538177 216.490601,272.447937 215.769089,273.602539 
	C212.557068,278.742462 208.215088,282.157135 202.665894,284.345978 
	C200.807129,285.079163 199.175034,286.323883 202.083969,288.037140 
z"/>
<path fill="#4E4947" opacity="1.000000" stroke="none" 
	d="
M323.992706,280.058319 
	C314.999695,279.976471 306.006714,279.894653 296.262054,279.644531 
	C294.262665,279.064240 293.033905,278.578339 291.764130,278.252106 
	C282.723755,275.929626 278.072479,270.512360 277.083954,260.566986 
	C277.179230,246.154282 277.273529,232.211441 277.255585,218.268723 
	C277.232727,200.513580 277.119080,182.758530 277.114624,164.538849 
	C277.222626,158.255814 277.429596,152.432678 277.268463,146.619766 
	C276.671692,125.088966 276.265747,103.544113 275.065704,82.044853 
	C274.758179,76.534515 271.799072,71.172173 270.072144,65.556412 
	C270.086151,65.370995 270.002655,65.008598 270.049011,64.675232 
	C269.749725,63.804562 269.404083,63.267269 269.064392,62.461670 
	C268.795074,61.775711 268.519836,61.358055 268.179016,60.622124 
	C268.048828,59.875927 267.984161,59.448009 267.908630,58.711117 
	C267.403595,57.501144 266.909424,56.600147 266.338745,55.427479 
	C265.719696,54.403358 265.177063,53.650909 264.497314,52.576481 
	C263.666870,51.733528 262.973572,51.212555 262.429993,50.686394 
	C262.579712,50.681206 262.571777,50.381683 262.588928,50.188019 
	C262.606049,49.994350 262.434052,49.645615 262.369324,49.387535 
	C261.960297,48.739220 261.616058,48.348988 261.111359,47.679016 
	C260.640625,47.101723 260.330322,46.804165 260.003540,46.376137 
	C259.907745,46.059414 259.767029,45.972572 259.311798,45.653458 
	C258.546448,45.194275 258.034241,45.066772 257.648743,44.631229 
	C256.668945,43.033997 255.562515,41.744801 254.224426,40.219521 
	C252.006210,38.931976 250.019653,37.880520 247.862366,36.567932 
	C246.817490,35.793171 245.943344,35.279541 244.974762,34.591579 
	C244.719193,34.199474 244.515015,34.035103 244.127716,33.707092 
	C243.728088,33.266575 243.468613,33.043098 242.951202,32.583447 
	C240.104431,31.164459 237.515594,29.981646 234.640472,28.630796 
	C231.232071,27.298868 228.109970,26.134975 224.804016,24.951551 
	C224.620163,24.932018 224.250427,24.936028 223.975296,24.704613 
	C221.479019,23.682531 219.257874,22.891865 216.741516,21.965271 
	C215.640076,21.525015 214.833862,21.220680 213.805801,20.744408 
	C213.050232,20.422939 212.516479,20.273411 211.648956,20.093094 
	C210.869110,20.028263 210.423050,19.994221 209.977005,19.960178 
	C197.613968,18.945383 185.246811,17.977497 172.890091,16.890789 
	C168.460205,16.501204 164.055527,15.824902 159.302170,15.080158 
	C159.716507,14.618821 160.460526,14.152349 161.220612,14.124475 
	C183.545441,13.305824 205.845428,14.052818 227.105362,21.428581 
	C245.363083,27.762777 261.892761,37.512482 271.790436,55.014801 
	C277.497375,65.106514 280.221771,76.454620 280.880951,88.130257 
	C281.346466,96.375832 281.818909,104.631401 281.897919,112.886246 
	C282.061218,129.948502 281.963989,147.013229 281.996338,165.013931 
	C282.013580,191.629379 282.008392,217.307846 282.003174,242.986313 
	C282.311218,249.742203 281.768524,256.675964 283.134705,263.210632 
	C284.997375,272.120392 291.026703,276.004333 300.165771,276.000610 
	C313.117310,275.995361 326.068878,275.963257 339.690430,276.098389 
	C340.567627,276.513153 340.751617,276.787750 340.830078,277.428680 
	C338.824860,278.556091 336.901855,279.332764 334.524536,280.055878 
	C330.711029,280.020996 327.351868,280.039642 323.992706,280.058319 
z"/>
<path fill="#9C8F87" opacity="1.000000" stroke="none" 
	d="
M277.033081,261.036896 
	C278.072479,270.512360 282.723755,275.929626 291.764130,278.252106 
	C293.033905,278.578339 294.262665,279.064240 295.801880,279.701416 
	C296.093384,281.681244 296.093384,283.435944 296.093384,285.607513 
	C290.402130,288.662506 283.871338,286.708649 280.667572,280.409271 
	C280.143066,279.377991 279.649780,278.180389 278.794250,277.491730 
	C272.007660,272.028778 268.399628,264.809326 265.589417,256.668365 
	C264.050598,252.210709 260.023041,248.612213 257.118225,244.625961 
	C256.629639,243.955536 255.866714,243.345825 255.699036,242.602402 
	C254.075531,235.404495 252.036224,228.248138 251.129349,220.953873 
	C249.967377,211.607681 249.705078,202.147385 249.140152,192.731140 
	C249.031708,190.923416 249.534225,189.073364 249.379486,187.275131 
	C248.891022,181.598953 248.098511,175.985840 242.302185,172.913467 
	C239.104736,171.218658 237.603806,168.647583 238.519760,165.103683 
	C239.651840,160.723618 238.868805,156.713654 236.060822,153.365372 
	C233.088470,149.821075 231.241638,146.059586 230.893982,141.379791 
	C230.453445,135.449829 228.412094,130.169922 223.267731,126.120773 
	C223.567535,125.116692 223.791321,124.640724 224.015106,124.164757 
	C224.754761,123.775200 225.494431,123.385651 226.860199,123.094414 
	C228.694458,122.797653 229.902603,122.402580 231.496445,122.033974 
	C232.918625,123.638206 235.049545,125.397987 234.822098,126.765549 
	C232.575134,140.276093 242.649521,149.947586 245.405319,161.843674 
	C245.439957,161.993210 245.604309,162.108521 245.688538,162.251358 
	C252.766846,174.255844 257.337769,187.033051 258.081451,201.088058 
	C258.526520,209.498932 258.794525,217.979599 260.171021,226.257812 
	C260.981628,231.132889 264.918091,235.548569 265.461029,240.393585 
	C266.263855,247.557693 270.174744,251.252151 275.989258,254.414001 
	C276.341949,256.896423 276.687531,258.966644 277.033081,261.036896 
z"/>
<path fill="#948780" opacity="1.000000" stroke="none" 
	d="
M202.408310,288.007019 
	C199.175034,286.323883 200.807129,285.079163 202.665894,284.345978 
	C208.215088,282.157135 212.557068,278.742462 215.769089,273.602539 
	C216.490601,272.447937 219.204056,272.538177 221.140320,272.017761 
	C216.856888,267.957947 212.721588,263.769287 208.254562,259.970764 
	C206.936111,258.849609 204.696640,258.761658 202.849243,258.328156 
	C201.364090,257.979675 199.833633,257.824310 198.361679,257.012268 
	C201.430969,253.635849 204.558533,250.925537 207.451248,247.984238 
	C208.861816,246.549988 209.834396,244.684967 211.348450,242.961639 
	C215.131775,238.275803 218.571869,233.643265 222.011963,229.010742 
	C223.332291,231.699371 224.719360,234.357803 225.952698,237.085754 
	C227.025818,239.459244 227.600601,242.132568 229.035339,244.237289 
	C229.778244,245.327118 232.170761,246.279053 233.364639,245.892639 
	C237.176178,244.658920 237.924179,246.667953 237.932114,249.552917 
	C237.942764,253.431152 237.652451,257.163391 242.326920,259.058258 
	C243.310425,259.456909 243.765457,261.916138 243.918594,263.479340 
	C244.713394,271.593658 245.509140,272.300232 253.674744,271.566772 
	C252.485703,272.558929 251.232590,273.485260 250.126022,274.562134 
	C249.059296,275.600250 247.295059,276.810852 247.317139,277.916168 
	C247.390930,281.611603 248.127579,285.293793 248.717560,289.800140 
	C247.545059,291.237122 246.267548,291.606354 243.839783,289.268280 
	C239.068939,284.673676 238.364731,278.927734 237.802322,272.933075 
	C237.610077,270.883789 236.983002,268.875336 236.312241,265.701385 
	C234.817642,267.619446 234.070450,268.578308 233.121445,269.788208 
	C229.651566,272.341461 226.503632,274.843048 223.088409,276.901154 
	C217.395660,280.331726 211.531769,283.478271 205.226166,286.997437 
	C204.465775,287.411926 204.234726,287.593292 204.019241,287.794464 
	C203.590378,287.855255 203.161514,287.916077 202.408310,288.007019 
M235.232635,263.137207 
	C235.063522,263.105255 234.894424,263.073273 234.725311,263.041321 
	C234.842194,263.120056 234.959061,263.198822 235.232635,263.137207 
z"/>
<path fill="#887D76" opacity="1.000000" stroke="none" 
	d="
M106.996429,298.005219 
	C102.474861,298.403168 97.953293,298.801147 93.223305,299.510742 
	C90.462898,299.123840 87.910904,298.425323 85.017319,297.214844 
	C84.430099,296.476440 84.184456,296.250000 83.938812,296.023560 
	C83.938812,296.023560 83.472206,295.939331 83.338295,295.559723 
	C84.446770,294.308197 85.620110,293.303589 86.954826,292.609131 
	C87.907921,292.113281 89.508339,292.393158 90.079292,291.708893 
	C93.256836,287.900635 96.308395,283.976013 99.213432,279.954224 
	C103.584351,273.903076 107.324455,267.552826 107.551468,259.727386 
	C115.634659,262.618408 123.350792,265.485107 131.066925,268.351837 
	C127.142113,277.620087 119.148544,283.053436 111.833031,289.233368 
	C109.584846,291.132568 108.582542,294.506592 107.004868,297.602661 
	C107.000000,298.000000 106.996429,298.005219 106.996429,298.005219 
z"/>
<path fill="#796E66" opacity="1.000000" stroke="none" 
	d="
M125.973190,180.970184 
	C127.007355,173.273392 128.930847,166.131302 135.383423,160.797684 
	C137.546341,159.009842 138.409851,155.713516 140.087555,153.257156 
	C141.737839,150.840958 144.056320,148.812469 145.355789,146.246323 
	C146.462906,144.059982 146.538544,141.351334 147.040436,138.523010 
	C156.057877,137.127731 165.105377,136.083206 174.398514,135.399460 
	C166.784592,137.478302 162.690933,143.224121 159.119614,149.799759 
	C155.662811,156.164597 151.655884,162.228256 148.046906,168.513962 
	C146.491608,171.222763 145.330078,174.157654 143.736420,177.111176 
	C142.979156,177.480209 142.475159,177.727890 141.634583,177.914276 
	C137.185806,178.889862 133.073593,179.926743 128.588196,180.968170 
	C127.467728,180.971893 126.720459,180.971039 125.973190,180.970184 
z"/>
<path fill="#8F827B" opacity="1.000000" stroke="none" 
	d="
M223.619080,124.100639 
	C223.791321,124.640724 223.567535,125.116692 223.166870,125.789742 
	C222.492798,126.238731 221.995636,126.490646 220.967529,126.795326 
	C217.888123,127.514549 215.339645,128.181000 213.390305,128.690765 
	C212.687668,130.948532 212.252670,132.718811 211.592621,134.400757 
	C209.149857,140.625595 205.396255,146.644455 204.476669,153.075531 
	C203.471756,160.103485 201.201477,165.401306 194.917572,168.943787 
	C196.606873,169.435394 197.834244,169.792587 198.848785,170.481079 
	C190.763535,172.224289 182.891144,173.636215 174.660614,175.008362 
	C171.531738,175.582916 168.760986,176.197250 165.665619,176.876434 
	C164.903244,176.993454 164.465485,177.045639 163.842102,176.918427 
	C163.492615,176.012207 163.139023,174.664413 163.192230,174.648163 
	C165.237259,174.023376 167.345840,173.607101 169.391983,172.985458 
	C175.799515,171.038773 182.430084,169.694733 184.220718,161.380478 
	C185.032318,157.612167 186.972305,153.738464 189.418823,150.744873 
	C194.175247,144.924774 197.793213,139.051590 196.009583,131.175003 
	C203.666641,129.137650 211.322433,127.095566 218.981888,125.067291 
	C220.388000,124.694939 221.808945,124.378670 223.619080,124.100639 
M189.659286,169.472458 
	C189.144073,169.629898 188.628860,169.787338 188.113632,169.944778 
	C188.283157,170.175369 188.557907,170.625443 188.605865,170.602448 
	C189.068161,170.380814 189.492294,170.079605 189.659286,169.472458 
z"/>
<path fill="#474140" opacity="1.000000" stroke="none" 
	d="
M442.055969,282.468201 
	C442.047394,282.272400 441.960388,282.121918 441.534851,281.654449 
	C439.824951,280.835144 438.375153,280.378204 436.925323,279.921265 
	C421.267242,279.942535 405.609192,279.963806 389.444244,279.575806 
	C388.849152,277.786621 388.760956,276.406769 388.712341,274.685059 
	C388.706757,273.888092 388.661560,273.432892 388.661987,272.522430 
	C388.509613,268.048798 388.311615,264.030487 388.140167,259.542725 
	C388.187988,254.256882 388.345795,249.436188 388.194794,244.625198 
	C388.019257,239.032700 387.573120,233.448700 387.187988,227.501190 
	C385.911865,223.662094 383.774933,221.702026 379.786957,222.366974 
	C377.551849,222.739655 375.264252,222.797516 372.539764,222.942795 
	C368.056335,222.905060 364.033478,222.921768 359.583130,222.863770 
	C357.147186,222.780975 355.138672,222.772903 353.008118,222.503372 
	C352.540161,221.558685 352.194244,220.875443 351.848358,220.192200 
	C362.523010,220.145538 373.197937,220.035950 383.872192,220.082520 
	C388.275452,220.101730 391.575378,222.431885 391.751038,226.824142 
	C392.370667,242.316391 392.552460,257.826263 392.873657,273.329987 
	C392.886475,273.947571 392.628204,274.570801 392.399048,275.648682 
	C394.089478,275.799561 395.522064,276.032166 396.955750,276.039124 
	C410.111084,276.102875 423.266632,276.151367 436.422119,276.154419 
	C444.100220,276.156189 448.325043,279.271088 448.671631,286.748322 
	C449.125488,296.538940 448.807983,306.375183 448.499207,316.181641 
	C448.447449,317.825836 446.759857,319.418518 445.484314,321.091278 
	C444.830688,320.055786 444.520905,318.964050 444.279785,317.244476 
	C444.401062,316.423065 444.453735,316.229431 444.506409,316.035767 
	C444.623444,315.510284 444.740509,314.984833 444.878052,313.730530 
	C444.870636,305.027740 444.842712,297.053741 444.814758,289.079773 
	C444.778046,288.543762 444.741333,288.007751 444.545929,286.838562 
	C443.610138,284.959625 442.833038,283.713928 442.055969,282.468201 
z"/>
<path fill="#887D76" opacity="1.000000" stroke="none" 
	d="
M195.658783,131.113281 
	C197.793213,139.051590 194.175247,144.924774 189.418823,150.744873 
	C186.972305,153.738464 185.032318,157.612167 184.220718,161.380478 
	C182.430084,169.694733 175.799515,171.038773 169.391983,172.985458 
	C167.345840,173.607101 165.237259,174.023376 163.192230,174.648163 
	C163.139023,174.664413 163.492615,176.012207 163.605469,177.253525 
	C157.397156,178.525055 151.239883,179.282104 144.773071,179.955566 
	C143.632751,179.239838 142.801941,178.607697 141.971146,177.975571 
	C142.475159,177.727890 142.979156,177.480209 144.172684,177.114517 
	C145.690384,176.988617 146.533768,177.080673 147.344406,176.957382 
	C155.654297,175.693298 164.036926,174.643951 166.112244,164.081223 
	C166.463165,162.295212 168.344711,160.855759 169.301132,159.135056 
	C173.670074,151.275009 180.702820,144.436768 179.009186,134.213242 
	C184.442123,133.159363 189.875046,132.105469 195.658783,131.113281 
M187.474152,134.502472 
	C187.474152,134.502472 187.514038,134.488525 187.474152,134.502472 
z"/>
<path fill="#7F746D" opacity="1.000000" stroke="none" 
	d="
M107.184410,259.703094 
	C107.324455,267.552826 103.584351,273.903076 99.213432,279.954224 
	C96.308395,283.976013 93.256836,287.900635 90.079292,291.708893 
	C89.508339,292.393158 87.907921,292.113281 86.954826,292.609131 
	C85.620110,293.303589 84.446770,294.308197 83.111351,295.491150 
	C79.754356,294.092896 76.490387,292.383606 73.193649,290.129028 
	C72.429604,288.402039 71.698318,287.220337 71.041016,285.919189 
	C71.214096,285.518158 71.163231,285.261566 70.947098,285.046021 
	C70.931770,285.061981 70.903885,285.027588 71.156769,284.876953 
	C77.468575,285.175812 80.907921,280.874298 83.634758,276.798706 
	C87.745346,270.654999 90.773445,263.792603 94.356194,257.287750 
	C96.107391,254.108246 96.153412,251.212189 94.408318,247.895355 
	C93.148201,245.500320 92.836693,242.606201 92.325783,240.193008 
	C94.654373,243.997986 96.759285,247.544617 98.830688,251.211166 
	C98.790031,251.592316 98.884377,251.815582 99.048950,251.989532 
	C99.017677,251.978165 99.050362,251.920212 99.082916,252.251862 
	C99.767204,253.373459 100.418938,254.163437 101.038788,254.969086 
	C101.006905,254.984772 101.046997,254.926086 101.174042,255.227402 
	C102.221115,255.999207 103.141136,256.469696 104.026527,256.956390 
	C103.991898,256.972595 104.052826,256.923065 104.128975,257.246368 
	C105.161995,258.360626 106.118866,259.151611 107.056458,259.861633 
	C107.037178,259.780670 107.184410,259.703094 107.184410,259.703094 
z"/>
<path fill="#514D4D" opacity="1.000000" stroke="none" 
	d="
M391.204834,324.139496 
	C391.986206,324.341553 392.767548,324.543610 393.792419,324.930725 
	C393.338593,330.937622 392.512329,336.748077 391.996094,342.585938 
	C391.719574,345.712891 391.976868,348.887024 391.999634,352.977051 
	C392.004395,370.317932 391.973816,386.721832 392.040100,403.125305 
	C392.047882,405.050903 392.589020,406.974365 392.882935,408.898804 
	C392.912476,423.179443 393.054871,437.461090 392.922302,451.740234 
	C392.859467,458.509277 392.271332,465.273468 391.506989,472.505737 
	C390.352844,472.959045 389.612885,472.946503 388.856262,472.493652 
	C388.595886,468.570465 388.144592,465.087860 388.140015,461.604675 
	C388.082428,417.647888 388.050873,373.690887 388.211975,329.734680 
	C388.218811,327.865997 390.163116,326.004395 391.204834,324.139496 
z"/>
<path fill="#887D76" opacity="1.000000" stroke="none" 
	d="
M244.267853,33.924133 
	C244.515015,34.035103 244.719193,34.199474 244.956085,35.012581 
	C244.590851,37.521969 244.525238,39.631355 243.647446,41.318089 
	C238.299881,51.593849 232.871216,61.831909 227.181717,71.920189 
	C226.359329,73.378387 223.988663,73.963409 222.108002,74.691063 
	C220.119064,73.049446 219.045471,69.886765 215.889023,72.113853 
	C210.115875,65.954559 202.242172,63.862362 194.350037,60.659721 
	C194.021210,59.727234 194.025192,59.296474 194.400757,58.902691 
	C198.180405,59.642963 201.588486,60.346264 205.254028,61.267986 
	C207.125717,62.330334 208.955780,62.919071 210.312973,64.066910 
	C214.105881,67.274780 216.766174,65.570068 218.755234,62.159637 
	C223.608063,53.839027 228.397919,45.473282 232.882385,36.951660 
	C234.150146,34.542587 234.276779,31.533005 234.926758,28.798834 
	C237.515594,29.981646 240.104431,31.164459 242.912796,32.765202 
	C243.510849,33.430134 243.889343,33.677132 244.267853,33.924133 
z"/>
<path fill="#837870" opacity="1.000000" stroke="none" 
	d="
M178.660187,134.153366 
	C180.702820,144.436768 173.670074,151.275009 169.301132,159.135056 
	C168.344711,160.855759 166.463165,162.295212 166.112244,164.081223 
	C164.036926,174.643951 155.654297,175.693298 147.344406,176.957382 
	C146.533768,177.080673 145.690384,176.988617 144.425934,176.993179 
	C145.330078,174.157654 146.491608,171.222763 148.046906,168.513962 
	C151.655884,162.228256 155.662811,156.164597 159.119614,149.799759 
	C162.690933,143.224121 166.784592,137.478302 174.829727,135.468597 
	C176.113937,134.815781 177.212570,134.454636 178.660187,134.153366 
z"/>
<path fill="#B2ABA7" opacity="1.000000" stroke="none" 
	d="
M341.984924,480.990906 
	C342.020538,483.700073 342.056152,486.409210 341.842377,489.674683 
	C341.702209,490.810791 341.811462,491.390564 341.920685,491.970337 
	C341.682770,493.356873 341.444855,494.743408 341.064240,496.453369 
	C340.282166,495.247681 339.098907,493.724243 339.082672,492.188538 
	C338.650635,451.340881 338.327179,410.492096 338.016418,369.643250 
	C337.954468,361.496277 337.901520,353.345947 338.065430,345.201630 
	C338.181213,339.447144 338.670013,333.700195 339.199768,327.352356 
	C339.920929,326.475067 340.434662,326.195312 340.949463,326.392365 
	C340.950287,375.813904 340.935242,424.758667 340.993774,473.703308 
	C340.996674,476.132904 341.639862,478.561737 341.984924,480.990906 
z"/>
<path fill="#BDB3B2" opacity="1.000000" stroke="none" 
	d="
M79.991913,158.977371 
	C63.900185,168.000778 52.150517,180.849060 45.405544,198.137680 
	C39.020645,214.503357 38.876701,231.335342 42.512859,248.162094 
	C43.733753,253.811920 47.200836,258.976349 49.684753,265.024658 
	C49.279247,266.332214 48.830231,266.977753 48.381218,267.623322 
	C25.625710,233.349670 36.907936,175.547989 79.609062,156.318756 
	C79.984558,157.418030 79.988235,158.197708 79.991913,158.977371 
z"/>
<path fill="#7F746D" opacity="1.000000" stroke="none" 
	d="
M194.029190,58.865719 
	C194.025192,59.296474 194.021210,59.727234 194.017059,60.481087 
	C181.339783,59.523380 168.687286,57.668701 155.978622,57.123943 
	C143.386520,56.584179 131.410049,59.740746 120.029785,66.989166 
	C116.240410,68.905235 112.926254,70.448006 110.197464,72.700058 
	C107.207565,75.167603 104.757980,78.289841 102.072929,81.126770 
	C104.777580,74.224564 109.820755,69.390800 115.727142,65.164764 
	C127.082130,57.040257 140.003632,53.882957 153.569458,54.157204 
	C166.776154,54.424194 179.956314,56.005287 193.576599,57.326553 
	C194.013123,58.051048 194.021149,58.458385 194.029190,58.865719 
z"/>
<path fill="#C7B8B4" opacity="1.000000" stroke="none" 
	d="
M340.912323,277.077942 
	C340.751617,276.787750 340.567627,276.513153 340.155914,276.113586 
	C339.634827,262.578430 339.259827,249.184891 339.024567,235.788910 
	C338.893860,228.347641 341.787323,223.633728 347.777832,222.113449 
	C348.894257,222.803146 349.388794,223.388947 349.551697,224.049606 
	C345.027710,226.149765 343.310852,229.765076 343.154327,234.145462 
	C343.013031,238.100098 343.226379,242.067383 343.241547,246.494049 
	C343.205078,254.315536 343.210419,261.672089 343.174561,269.455811 
	C343.074646,271.999878 343.109222,274.127655 342.866730,276.223297 
	C342.825592,276.578827 341.593933,276.796539 340.912323,277.077942 
z"/>
<path fill="#BDB3B2" opacity="1.000000" stroke="none" 
	d="
M216.061584,72.410889 
	C219.045471,69.886765 220.119064,73.049446 222.230621,74.986862 
	C224.206192,78.129761 225.832642,80.715416 227.551941,83.687065 
	C228.878815,89.690727 230.112839,95.308403 231.303787,101.351776 
	C231.210724,108.520813 231.160736,115.264160 231.110748,122.007507 
	C229.902603,122.402580 228.694458,122.797653 227.180710,123.080978 
	C229.699051,108.986221 227.507355,95.464775 222.584381,82.362022 
	C221.263016,78.845139 218.393143,75.910072 216.061584,72.410889 
z"/>
<path fill="#4B4443" opacity="1.000000" stroke="none" 
	d="
M102.042839,81.103600 
	C104.757980,78.289841 107.207565,75.167603 110.197464,72.700058 
	C112.926254,70.448006 116.240410,68.905235 119.671951,67.046417 
	C109.799812,76.194923 103.412979,87.600975 99.601456,100.737114 
	C98.980957,102.875580 95.713364,104.245972 93.299515,105.911491 
	C91.491631,97.892059 97.943565,92.767303 100.304863,85.465576 
	C101.067741,83.575684 101.560677,82.296043 102.053604,81.016403 
	C102.053604,81.016403 102.012749,81.080429 102.042839,81.103600 
z"/>
<path fill="#9C8F87" opacity="1.000000" stroke="none" 
	d="
M99.431007,301.897583 
	C100.345657,301.254913 101.683594,300.143097 102.952400,300.217041 
	C119.187706,301.163574 135.413116,302.279724 151.937668,302.370667 
	C151.050201,303.015808 150.162750,303.660980 149.130554,304.565247 
	C147.942505,304.874786 146.899185,304.925171 145.267426,305.096649 
	C144.433029,305.374908 144.211365,305.560944 144.013962,305.775879 
	C143.247665,305.817627 142.481369,305.859375 141.046906,305.688965 
	C138.921417,305.594208 137.464096,305.711609 136.006790,305.828979 
	C123.734810,306.524017 111.657814,305.386139 99.431007,301.897583 
z"/>
<path fill="#948780" opacity="1.000000" stroke="none" 
	d="
M340.948364,325.915558 
	C340.434662,326.195312 339.920929,326.475067 339.149597,326.894287 
	C336.998047,326.675079 335.106232,326.020233 333.209686,326.006104 
	C321.445068,325.918427 309.679321,325.974609 297.600830,325.635864 
	C298.543304,324.533936 299.798950,323.779175 301.415283,323.020782 
	C302.500519,323.010010 303.225098,323.002838 304.109985,323.174500 
	C304.493042,323.583282 304.732056,323.794922 305.413269,323.991272 
	C308.226562,323.329132 310.613892,322.663940 313.467987,321.997009 
	C318.954895,321.998047 323.975006,322.000854 329.443726,322.004639 
	C333.864014,322.373352 337.835693,322.741058 341.862793,323.462402 
	C341.954895,324.529327 341.991608,325.242615 341.759155,325.924255 
	C341.309418,325.900299 341.128876,325.907928 340.948364,325.915558 
z"/>
<path fill="#C7B8B4" opacity="1.000000" stroke="none" 
	d="
M81.006485,42.998329 
	C71.577507,50.808514 63.404179,59.688908 57.019424,70.666092 
	C55.984173,70.158546 55.466377,69.519676 54.948582,68.880798 
	C59.996426,57.996918 67.904205,49.508308 77.911209,42.120407 
	C79.374260,42.335960 80.190369,42.667145 81.006485,42.998329 
z"/>
<path fill="#837870" opacity="1.000000" stroke="none" 
	d="
M50.032036,98.005569 
	C60.196461,100.013397 70.353783,102.058426 80.530388,104.002449 
	C83.020424,104.478127 85.573639,104.623146 88.008255,105.639725 
	C85.576485,105.993774 83.144722,106.347824 80.352249,106.856796 
	C79.234108,106.978104 78.476677,106.944489 77.121902,106.707382 
	C75.689308,106.567711 74.854057,106.631516 74.018814,106.695312 
	C67.251793,105.742897 60.418556,105.093109 53.761776,103.636765 
	C51.977180,103.246338 50.730545,100.396950 49.411182,98.327332 
	C49.585419,97.978271 50.032036,98.005569 50.032036,98.005569 
z"/>
<path fill="#796E66" opacity="1.000000" stroke="none" 
	d="
M144.592804,16.082291 
	C144.719833,17.223000 144.640961,19.158779 144.114029,19.289587 
	C133.246094,21.987471 122.328094,24.483871 111.415321,26.999796 
	C110.940834,27.109190 110.421387,27.023560 109.474792,26.720108 
	C109.005264,26.000515 108.983826,25.589588 108.962387,25.178661 
	C120.701012,22.131390 132.439621,19.084116 144.592804,16.082291 
z"/>
<path fill="#A69991" opacity="1.000000" stroke="none" 
	d="
M252.103012,307.369476 
	C252.544601,303.581543 254.248901,305.176208 255.691208,306.290222 
	C264.044464,312.742249 273.359680,317.355286 283.482117,321.171082 
	C283.131165,322.286133 282.570923,323.072449 282.010681,323.858765 
	C271.114105,320.254669 260.942902,315.315338 252.103012,307.369476 
z"/>
<path fill="#BDB3B2" opacity="1.000000" stroke="none" 
	d="
M50.031540,97.555984 
	C50.032036,98.005569 49.585419,97.978271 49.362583,97.958595 
	C44.893650,93.517204 47.258411,88.595078 48.532913,84.078308 
	C49.968727,78.989838 52.341850,74.165833 54.627930,69.053802 
	C55.466377,69.519676 55.984173,70.158546 56.797150,70.918152 
	C53.603558,79.420601 49.121494,87.533241 50.031540,97.555984 
z"/>
<path fill="#887D76" opacity="1.000000" stroke="none" 
	d="
M282.375458,242.765762 
	C282.008392,217.307846 282.013580,191.629379 282.012085,165.483353 
	C282.333405,165.694229 282.948730,166.373016 282.947906,167.051056 
	C282.916565,192.215820 282.828278,217.380508 282.375458,242.765762 
z"/>
<path fill="#B2ABA7" opacity="1.000000" stroke="none" 
	d="
M81.320168,42.863922 
	C80.190369,42.667145 79.374260,42.335960 78.220192,41.978195 
	C84.011780,38.071350 90.141319,34.191093 96.634773,30.595976 
	C97.016037,31.602196 97.033379,32.323277 97.050720,33.044365 
	C91.911758,36.272747 86.772804,39.501129 81.320168,42.863922 
z"/>
<path fill="#474140" opacity="1.000000" stroke="none" 
	d="
M388.872955,472.933960 
	C389.612885,472.946503 390.352844,472.959045 391.462616,472.969940 
	C391.878906,478.843384 392.010468,484.719940 391.906891,490.592407 
	C391.883484,491.921448 391.042847,493.236084 390.203400,494.689392 
	C389.621521,494.586090 389.380798,494.392822 388.947449,493.665100 
	C388.816711,486.370392 388.844849,479.652191 388.872955,472.933960 
z"/>
<path fill="#B2ABA7" opacity="1.000000" stroke="none" 
	d="
M48.584805,267.889954 
	C48.830231,266.977753 49.279247,266.332214 49.873161,265.318939 
	C53.398300,269.013367 56.778534,273.075531 60.594017,277.606201 
	C62.222347,279.394470 63.415428,280.714233 64.315323,282.164490 
	C63.676689,282.542816 63.331245,282.790619 62.985798,283.038422 
	C58.253326,278.077820 53.520859,273.117188 48.584805,267.889954 
z"/>
<path fill="#887D76" opacity="1.000000" stroke="none" 
	d="
M392.931702,408.439331 
	C392.589020,406.974365 392.047882,405.050903 392.040100,403.125305 
	C391.973816,386.721832 392.004395,370.317932 392.009979,353.443909 
	C392.344604,354.496033 392.957123,356.017426 392.962585,357.540955 
	C393.022919,374.353729 392.988892,391.166809 392.931702,408.439331 
z"/>
<path fill="#8F827B" opacity="1.000000" stroke="none" 
	d="
M104.638794,146.025711 
	C103.684082,147.257706 102.575890,148.966537 101.013672,149.676834 
	C96.699188,151.638611 92.194984,153.183121 87.413391,154.602386 
	C87.032326,153.584167 87.003670,152.856171 86.975014,152.128204 
	C90.713348,150.760193 94.451683,149.392181 98.856354,147.982941 
	C100.019867,147.700500 100.517044,147.459320 101.014221,147.218124 
	C102.102196,146.827713 103.190163,146.437317 104.638794,146.025711 
z"/>
<path fill="#A2958D" opacity="1.000000" stroke="none" 
	d="
M282.434875,323.930267 
	C282.570923,323.072449 283.131165,322.286133 283.842224,321.252869 
	C288.355133,321.339996 292.717224,321.674042 297.910858,322.008545 
	C299.487549,322.012024 300.232758,322.015076 300.995056,322.269775 
	C301.026306,322.689056 301.040466,322.856720 301.054596,323.024414 
	C299.798950,323.779175 298.543304,324.533936 297.136108,325.563446 
	C292.276031,325.226074 287.567566,324.613922 282.434875,323.930267 
z"/>
<path fill="#948780" opacity="1.000000" stroke="none" 
	d="
M97.397690,32.961136 
	C97.033379,32.323277 97.016037,31.602196 96.978134,30.521168 
	C100.712517,28.471186 104.467468,26.781153 108.592407,25.134890 
	C108.983826,25.589588 109.005264,26.000515 109.052658,26.719547 
	C105.300636,28.977737 101.522652,30.927822 97.397690,32.961136 
z"/>
<path fill="#948780" opacity="1.000000" stroke="none" 
	d="
M63.102425,283.360321 
	C63.331245,282.790619 63.676689,282.542816 64.584351,282.260864 
	C67.065674,283.160370 68.984779,284.093964 70.903885,285.027588 
	C70.903885,285.027588 70.931770,285.061981 70.928841,285.298401 
	C70.939621,285.702759 70.953323,285.870697 70.967026,286.038605 
	C71.698318,287.220337 72.429604,288.402039 73.046646,289.814636 
	C69.694611,287.924408 66.456825,285.803314 63.102425,283.360321 
z"/>
<path fill="#B2ABA7" opacity="1.000000" stroke="none" 
	d="
M86.633682,152.183929 
	C87.003670,152.856171 87.032326,153.584167 87.059814,154.676849 
	C84.918671,156.286285 82.778694,157.531006 80.315323,158.876556 
	C79.988235,158.197708 79.984558,157.418030 79.968239,156.248657 
	C82.067848,154.652527 84.180099,153.446106 86.633682,152.183929 
z"/>
<path fill="#968981" opacity="1.000000" stroke="none" 
	d="
M349.883301,223.974731 
	C349.388794,223.388947 348.894257,222.803146 348.149994,222.065704 
	C348.990723,221.312897 350.081207,220.711716 351.510010,220.151367 
	C352.194244,220.875443 352.540161,221.558685 352.731262,222.725647 
	C351.678741,223.464493 350.781036,223.719604 349.883301,223.974731 
z"/>
<path fill="#8F827B" opacity="1.000000" stroke="none" 
	d="
M136.415695,305.903656 
	C137.464096,305.711609 138.921417,305.594208 140.667038,305.626587 
	C139.578430,305.843689 138.201523,305.911011 136.415695,305.903656 
z"/>
<path fill="#72655E" opacity="1.000000" stroke="none" 
	d="
M74.378754,106.799179 
	C74.854057,106.631516 75.689308,106.567711 76.747589,106.647522 
	C76.226654,106.828445 75.482674,106.865738 74.378754,106.799179 
z"/>
<path fill="#71665F" opacity="1.000000" stroke="none" 
	d="
M100.719627,147.154388 
	C100.517044,147.459320 100.019867,147.700500 99.243881,147.958206 
	C99.451736,147.680038 99.938385,147.385361 100.719627,147.154388 
z"/>
<path fill="#8F827B" opacity="1.000000" stroke="none" 
	d="
M204.271393,287.816956 
	C204.234726,287.593292 204.465775,287.411926 204.905701,287.144775 
	C204.907181,287.305939 204.715347,287.572693 204.271393,287.816956 
z"/>
<path fill="#7F746D" opacity="1.000000" stroke="none" 
	d="
M84.031647,296.268250 
	C84.184456,296.250000 84.430099,296.476440 84.817383,296.910370 
	C84.680847,296.916199 84.402657,296.714539 84.031647,296.268250 
z"/>
<path fill="#8F827B" opacity="1.000000" stroke="none" 
	d="
M144.264557,305.807983 
	C144.211365,305.560944 144.433029,305.374908 144.876358,305.126709 
	C144.887543,305.303833 144.701340,305.571960 144.264557,305.807983 
z"/>
<path fill="#887D76" opacity="1.000000" stroke="none" 
	d="
M93.992500,300.280182 
	C94.167625,300.175171 94.416176,300.338379 94.811615,300.680908 
	C94.681328,300.725311 94.383797,300.621368 93.992500,300.280182 
z"/>
<path fill="#796E66" opacity="1.000000" stroke="none" 
	d="
M342.028320,325.955872 
	C341.991608,325.242615 341.954895,324.529327 342.067932,323.385925 
	C343.002869,322.518311 344.113861,322.280914 344.523804,321.613129 
	C349.788727,313.037170 355.111450,304.490082 360.105103,295.755890 
	C366.921448,283.833832 373.522461,271.787170 380.090271,259.725555 
	C381.666779,256.830353 383.243256,254.573013 387.002808,256.362366 
	C387.380463,257.817169 387.747040,258.914673 388.113647,260.012146 
	C388.311615,264.030487 388.509613,268.048798 388.486328,272.625427 
	C388.401001,273.798096 388.536865,274.412506 388.672729,275.026886 
	C388.760956,276.406769 388.849152,277.786621 388.976593,279.579681 
	C386.087799,284.569885 382.925415,289.017029 380.297546,293.760345 
	C377.658936,298.523071 375.780670,303.707611 373.133698,308.464966 
	C371.363525,311.646484 368.811340,314.389282 366.652283,317.359802 
	C365.792694,318.542511 365.011169,319.786865 364.259949,321.042542 
	C360.251770,327.742218 356.026794,334.327972 352.365326,341.212921 
	C350.392883,344.921844 349.697937,349.298035 347.838013,353.083984 
	C346.881866,355.030182 344.634827,356.342194 342.555542,357.516052 
	C342.102753,346.712860 342.065552,336.334381 342.028320,325.955872 
z"/>
<path fill="#796E66" opacity="1.000000" stroke="none" 
	d="
M388.856262,472.493652 
	C388.844849,479.652191 388.816711,486.370392 388.740967,493.558136 
	C387.970520,492.947052 386.626007,491.870789 386.618500,490.785278 
	C386.511810,475.332886 386.636597,459.879089 386.588135,444.425995 
	C386.572083,439.297333 386.061218,434.170013 386.052368,429.041626 
	C385.997223,397.081573 385.997375,365.121399 386.062775,333.161438 
	C386.067810,330.693207 386.421661,328.127930 387.202972,325.806183 
	C387.524567,324.850586 389.407166,324.420258 390.892273,323.945251 
	C390.163116,326.004395 388.218811,327.865997 388.211975,329.734680 
	C388.050873,373.690887 388.082428,417.647888 388.140015,461.604675 
	C388.144592,465.087860 388.595886,468.570465 388.856262,472.493652 
z"/>
<path fill="#C7B8B4" opacity="1.000000" stroke="none" 
	d="
M341.759155,325.924255 
	C342.065552,336.334381 342.102753,346.712860 342.202271,357.558167 
	C342.202545,393.887207 342.140656,429.749451 342.078400,465.611725 
	C342.070068,470.426758 342.060303,475.241760 342.018066,480.523865 
	C341.639862,478.561737 340.996674,476.132904 340.993774,473.703308 
	C340.935242,424.758667 340.950287,375.813904 340.949463,326.392365 
	C341.128876,325.907928 341.309418,325.900299 341.759155,325.924255 
z"/>
<path fill="#796E66" opacity="1.000000" stroke="none" 
	d="
M444.507294,289.279053 
	C444.842712,297.053741 444.870636,305.027740 444.857147,313.459534 
	C444.431061,313.604340 443.706818,313.286255 443.711395,312.979004 
	C443.827789,305.144775 444.020477,297.311676 444.507294,289.279053 
z"/>
<path fill="#796E66" opacity="1.000000" stroke="none" 
	d="
M437.194824,280.163086 
	C438.375153,280.378204 439.824951,280.835144 441.405670,281.616394 
	C440.179169,281.428741 438.821747,280.916840 437.194824,280.163086 
z"/>
<path fill="#796E66" opacity="1.000000" stroke="none" 
	d="
M442.106567,282.851105 
	C442.833038,283.713928 443.610138,284.959625 444.443970,286.588135 
	C443.719574,285.725250 442.938385,284.479614 442.106567,282.851105 
z"/>
<path fill="#C7B8B4" opacity="1.000000" stroke="none" 
	d="
M341.962280,491.645996 
	C341.811462,491.390564 341.702209,490.810791 341.788635,490.123627 
	C341.990814,490.451385 341.997345,490.886505 341.962280,491.645996 
z"/>
<path fill="#796E66" opacity="1.000000" stroke="none" 
	d="
M444.357971,316.131897 
	C444.453735,316.229431 444.401062,316.423065 444.247925,316.902710 
	C444.168152,316.868500 444.188843,316.548248 444.357971,316.131897 
z"/>
<path fill="#796E66" opacity="1.000000" stroke="none" 
	d="
M194.400757,58.902691 
	C194.021149,58.458385 194.013123,58.051048 194.001282,57.337463 
	C199.080414,53.202179 199.941635,46.931881 202.857864,41.848255 
	C205.392822,37.429279 208.164322,33.088917 211.319016,29.099497 
	C214.147324,25.522840 210.971710,23.389109 210.033157,20.313950 
	C210.423050,19.994221 210.869110,20.028263 211.737091,20.305956 
	C212.781891,20.671852 213.404770,20.794102 214.027634,20.916348 
	C214.833862,21.220680 215.640076,21.525015 216.896362,22.270039 
	C219.647751,23.452496 221.949097,24.194262 224.250427,24.936028 
	C224.250427,24.936028 224.620163,24.932018 224.867645,25.294197 
	C224.920685,27.252789 225.194595,29.120556 224.453278,30.400141 
	C220.582932,37.080589 216.516830,43.650879 212.392014,50.179359 
	C210.052505,53.882149 207.469757,57.431248 204.996552,61.049564 
	C201.588486,60.346264 198.180405,59.642963 194.400757,58.902691 
z"/>
<path fill="#7F746D" opacity="1.000000" stroke="none" 
	d="
M101.776054,81.227737 
	C101.560677,82.296043 101.067741,83.575684 100.308846,85.107292 
	C100.528084,84.052536 101.013290,82.745796 101.776054,81.227737 
z"/>
<path fill="#796E66" opacity="1.000000" stroke="none" 
	d="
M71.156769,284.876953 
	C68.984779,284.093964 67.065674,283.160370 64.877533,282.130371 
	C63.415428,280.714233 62.222347,279.394470 60.869732,277.813751 
	C61.546299,276.757355 62.405506,275.253998 63.214794,275.280426 
	C68.828011,275.463623 70.190331,270.926300 72.268593,267.341095 
	C76.748070,259.613586 80.947769,251.723358 85.465042,244.018814 
	C86.328186,242.546661 88.125061,241.621979 90.094131,240.215118 
	C91.158470,239.971237 91.619835,239.956970 92.081253,239.956680 
	C92.081306,239.970642 92.102119,239.934662 92.102112,239.934662 
	C92.836693,242.606201 93.148201,245.500320 94.408318,247.895355 
	C96.153412,251.212189 96.107391,254.108246 94.356194,257.287750 
	C90.773445,263.792603 87.745346,270.654999 83.634758,276.798706 
	C80.907921,280.874298 77.468575,285.175812 71.156769,284.876953 
z"/>
<path fill="#4B4443" opacity="1.000000" stroke="none" 
	d="
M98.864197,251.091232 
	C96.759285,247.544617 94.654373,243.997986 92.325790,240.193008 
	C92.102119,239.934662 92.081306,239.970642 92.038902,239.569092 
	C90.960175,232.466446 89.923851,225.765350 88.887527,219.064270 
	C85.868378,211.768372 91.063896,207.222198 94.571465,202.116913 
	C95.306076,201.047684 96.107246,200.024185 97.270966,198.520187 
	C99.442902,197.378799 101.221619,196.696838 102.876816,196.327744 
	C95.001373,203.630524 93.464828,212.711807 93.971825,222.520294 
	C94.776970,238.096512 104.323822,255.564331 121.104034,261.084167 
	C126.975075,263.015442 133.025925,264.400116 138.798599,266.246796 
	C137.723312,267.174774 136.844070,267.890350 135.964844,268.605957 
	C134.603882,268.561157 133.242905,268.516327 131.474426,268.411682 
	C123.350792,265.485107 115.634659,262.618408 107.551468,259.727386 
	C107.184410,259.703094 107.037178,259.780670 107.041252,259.528076 
	C106.047821,258.491333 105.050323,257.707184 104.052826,256.923065 
	C104.052826,256.923065 103.991898,256.972595 103.889977,256.663849 
	C102.874367,255.878769 101.960678,255.402435 101.046997,254.926086 
	C101.046997,254.926086 101.006905,254.984772 101.039307,254.645935 
	C100.397926,253.511459 99.724144,252.715836 99.050362,251.920212 
	C99.050362,251.920212 99.017677,251.978165 99.022141,251.755280 
	C99.026611,251.532394 98.864204,251.091232 98.864197,251.091232 
z"/>
<path fill="#7F746D" opacity="1.000000" stroke="none" 
	d="
M103.000336,196.014862 
	C101.221619,196.696838 99.442902,197.378799 97.355515,198.201660 
	C97.935173,196.821457 98.513428,194.953598 99.762878,193.836365 
	C107.103760,187.272415 115.798515,183.300186 125.656097,181.026306 
	C126.720459,180.971039 127.467728,180.971893 128.602509,181.326080 
	C129.007095,182.155930 129.024170,182.632416 128.812714,183.413696 
	C118.810120,185.224640 110.798500,190.397705 103.000336,196.014862 
z"/>
<path fill="#7F746D" opacity="1.000000" stroke="none" 
	d="
M88.583542,219.233017 
	C89.923851,225.765350 90.960175,232.466446 92.038849,239.555115 
	C91.619835,239.956970 91.158470,239.971237 90.351334,239.989883 
	C89.167076,234.649063 88.225601,229.316666 87.557739,223.950241 
	C87.375595,222.486679 88.016418,220.920731 88.583542,219.233017 
z"/>
<path fill="#000000" opacity="1.000000" stroke="none" 
	d="
M102.876816,196.327759 
	C110.798500,190.397705 118.810120,185.224640 129.205536,183.376923 
	C134.912140,182.036636 139.997375,181.037903 145.082611,180.039185 
	C151.239883,179.282104 157.397156,178.525055 163.791077,177.432907 
	C164.465485,177.045639 164.903244,176.993454 166.066635,176.945404 
	C169.534424,176.315735 172.276581,175.681931 175.018738,175.048141 
	C182.891144,173.636215 190.763535,172.224289 199.172241,170.410294 
	C200.143921,169.942566 200.579300,169.876923 201.404144,169.886124 
	C204.206696,169.334473 206.619812,168.707993 209.405334,168.037064 
	C210.523499,167.933838 211.269257,167.875076 212.268570,167.831573 
	C212.712906,167.578156 212.903687,167.309479 213.322052,167.004761 
	C213.549637,166.968750 213.990219,166.833542 214.327209,166.900787 
	C215.454483,166.678055 216.244766,166.388107 217.035034,166.098160 
	C219.239197,165.646790 221.443375,165.195419 224.275192,164.373016 
	C225.595276,164.971558 226.833405,165.912445 226.886124,166.915619 
	C227.120010,171.366882 227.075668,175.836777 227.018890,180.298492 
	C226.865143,192.379684 228.259598,204.627472 223.179672,216.511246 
	C221.113617,221.055878 219.322205,225.385986 217.153885,229.518356 
	C214.925613,233.765030 212.329361,237.818573 209.547333,241.985062 
	C208.045105,242.905869 206.711197,243.640457 205.761398,244.714661 
	C194.387665,257.578156 179.373260,262.394073 162.731232,264.184814 
	C162.302536,264.427307 162.123810,264.697205 161.708923,265.015747 
	C161.472794,265.064362 161.016052,265.218872 161.016052,265.218872 
	C160.270020,265.163391 159.524002,265.107910 158.052353,265.054596 
	C151.216049,265.382629 145.105347,265.708496 138.994659,266.034393 
	C133.025925,264.400116 126.975075,263.015442 121.104034,261.084167 
	C104.323822,255.564331 94.776970,238.096512 93.971825,222.520294 
	C93.464828,212.711807 95.001373,203.630524 102.876816,196.327759 
z"/>
<path fill="#948780" opacity="1.000000" stroke="none" 
	d="
M300.977936,322.018127 
	C300.232758,322.015076 299.487549,322.012024 298.369690,322.006317 
	C300.903198,308.861847 308.979797,298.930542 317.926849,289.456024 
	C320.316650,286.925323 321.974915,283.703888 323.980865,280.428955 
	C327.351868,280.039642 330.711029,280.020996 334.490479,280.422119 
	C332.092834,286.245636 329.407471,291.723694 326.426422,297.035858 
	C321.725189,305.413330 316.825317,313.679382 311.550323,321.995392 
	C307.720062,322.004852 304.348999,322.011475 300.977936,322.018127 
z"/>
<path fill="#968981" opacity="1.000000" stroke="none" 
	d="
M201.014694,169.811279 
	C200.579300,169.876923 200.143921,169.942566 199.385071,170.078995 
	C197.834244,169.792587 196.606873,169.435394 194.917572,168.943787 
	C201.201477,165.401306 203.471756,160.103485 204.476669,153.075531 
	C205.396255,146.644455 209.149857,140.625595 211.592621,134.400757 
	C212.252670,132.718811 212.687668,130.948532 213.390305,128.690765 
	C215.339645,128.181000 217.888123,127.514549 220.716965,126.917427 
	C222.459213,132.265579 222.466736,137.313797 219.636185,142.322311 
	C218.878586,143.662872 219.395782,145.942108 219.809250,147.675568 
	C220.443817,150.335815 221.626724,152.861374 222.336533,155.508560 
	C223.216812,158.791473 221.642960,160.814148 218.637939,162.076782 
	C217.156540,162.699234 215.827026,163.683105 214.223389,165.081268 
	C214.008728,166.050568 213.999466,166.442062 213.990219,166.833542 
	C213.990219,166.833542 213.549637,166.968750 213.126984,167.111481 
	C212.457642,167.420837 212.227875,167.608200 212.014999,167.816299 
	C211.269257,167.875076 210.523499,167.933838 209.116272,167.846924 
	C205.974762,168.404587 203.494736,169.107925 201.014694,169.811279 
z"/>
<path fill="#A69991" opacity="1.000000" stroke="none" 
	d="
M223.288849,216.209915 
	C228.259598,204.627472 226.865143,192.379684 227.018890,180.298492 
	C227.075668,175.836777 227.120010,171.366882 226.886124,166.915619 
	C226.833405,165.912445 225.595276,164.971558 224.467438,164.047821 
	C225.163086,162.981339 226.294128,161.869019 227.425171,160.756714 
	C228.764862,162.213547 231.269424,163.675949 231.262482,165.126358 
	C231.198990,178.390671 230.887497,191.662674 230.199814,204.909149 
	C230.017624,208.418732 228.285797,211.847855 226.661469,215.665039 
	C225.134567,216.080734 224.211700,216.145325 223.288849,216.209915 
z"/>
<path fill="#9E9189" opacity="1.000000" stroke="none" 
	d="
M223.179672,216.511246 
	C224.211700,216.145325 225.134567,216.080734 226.519196,215.997314 
	C225.376205,220.087479 223.771469,224.196457 222.089355,228.658081 
	C218.571869,233.643265 215.131775,238.275803 211.177612,242.770264 
	C210.407059,242.407013 210.150589,242.181824 209.894119,241.956635 
	C212.329361,237.818573 214.925613,233.765030 217.153885,229.518356 
	C219.322205,225.385986 221.113617,221.055878 223.179672,216.511246 
z"/>
<path fill="#8F827B" opacity="1.000000" stroke="none" 
	d="
M214.327209,166.900787 
	C213.999466,166.442062 214.008728,166.050568 214.026703,165.367065 
	C214.862747,165.285217 215.690048,165.495377 216.776184,165.901855 
	C216.244766,166.388107 215.454483,166.678055 214.327209,166.900787 
z"/>
<path fill="#A69991" opacity="1.000000" stroke="none" 
	d="
M250.481415,301.943878 
	C250.523270,301.927948 250.439545,301.959808 250.481415,301.943878 
z"/>
<path fill="#988D84" opacity="1.000000" stroke="none" 
	d="
M209.547333,241.985062 
	C210.150589,242.181824 210.407059,242.407013 210.834381,242.823563 
	C209.834396,244.684967 208.861816,246.549988 207.451248,247.984238 
	C204.558533,250.925537 201.430969,253.635849 198.201874,256.708069 
	C196.173965,257.678162 194.161392,258.096161 192.545013,259.132294 
	C183.662170,264.826263 173.445694,265.926636 163.439804,267.705994 
	C162.746307,267.829346 161.789215,266.470245 160.985382,265.509705 
	C161.016052,265.218872 161.472794,265.064362 161.899017,264.915741 
	C162.563217,264.605011 162.781860,264.420074 162.981186,264.212280 
	C179.373260,262.394073 194.387665,257.578156 205.761398,244.714661 
	C206.711197,243.640457 208.045105,242.905869 209.547333,241.985062 
z"/>
<path fill="#71665F" opacity="1.000000" stroke="none" 
	d="
M138.798599,266.246796 
	C145.105347,265.708496 151.216049,265.382629 157.682068,265.118286 
	C151.479996,269.679199 144.229706,270.437469 136.282684,268.877960 
	C136.844070,267.890350 137.723312,267.174774 138.798599,266.246796 
z"/>
<path fill="#887D76" opacity="1.000000" stroke="none" 
	d="
M107.002670,297.998169 
	C107.005348,297.996368 107.044182,298.083801 107.020309,298.044495 
	C106.996429,298.005219 107.000000,298.000000 107.002670,297.998169 
z"/>
<path fill="#9E9189" opacity="1.000000" stroke="none" 
	d="
M231.496445,122.033974 
	C231.160736,115.264160 231.210724,108.520813 231.645096,101.311966 
	C232.898132,100.167839 234.236374,99.662483 234.560883,98.783073 
	C237.074432,91.971375 239.091003,84.963608 241.847946,78.257668 
	C245.181870,70.148232 248.964355,62.213638 252.801758,54.324524 
	C254.930161,49.948883 255.888763,45.666073 254.095139,40.887253 
	C254.218475,40.745922 254.456085,40.455605 254.456085,40.455605 
	C255.562515,41.744801 256.668945,43.033997 257.985443,44.812424 
	C258.651978,45.529488 259.108490,45.757309 259.564972,45.985138 
	C259.767029,45.972572 259.907745,46.059414 260.186401,46.642113 
	C260.681061,47.345295 260.976410,47.652027 261.271790,47.958755 
	C261.616058,48.348988 261.960297,48.739220 262.115723,49.604698 
	C261.617340,50.389534 261.307861,50.699131 260.882202,51.327873 
	C261.757263,56.011887 258.282257,58.785011 257.049072,62.346687 
	C253.098480,73.756950 249.620697,85.330078 245.888824,96.817093 
	C239.156662,117.539291 245.628952,136.341675 254.244843,154.838928 
	C255.432678,157.389084 256.694489,159.906647 257.985870,162.406326 
	C260.908539,168.063492 263.557404,173.659607 264.320282,180.246964 
	C265.225677,188.064728 266.995880,195.847809 269.134308,203.436523 
	C270.831238,209.458359 273.647247,215.164871 275.973572,221.478760 
	C275.980255,229.966019 275.979675,237.985916 275.765045,246.091156 
	C275.693634,246.782394 275.836273,247.388275 275.985931,248.423096 
	C275.989349,250.568634 275.985779,252.285217 275.982178,254.001801 
	C270.174744,251.252151 266.263855,247.557693 265.461029,240.393585 
	C264.918091,235.548569 260.981628,231.132889 260.171021,226.257812 
	C258.794525,217.979599 258.526520,209.498932 258.081451,201.088058 
	C257.337769,187.033051 252.766846,174.255844 245.688538,162.251358 
	C245.604309,162.108521 245.439957,161.993210 245.405319,161.843674 
	C242.649521,149.947586 232.575134,140.276093 234.822098,126.765549 
	C235.049545,125.397987 232.918625,123.638206 231.496445,122.033974 
z"/>
<path fill="#A69991" opacity="1.000000" stroke="none" 
	d="
M268.244568,60.940407 
	C268.519836,61.358055 268.795074,61.775711 269.118408,62.770576 
	C269.445190,63.901394 269.723938,64.454994 270.002655,65.008598 
	C270.002655,65.008598 270.086151,65.370995 270.066772,65.984756 
	C270.369324,69.399277 270.691284,72.200043 270.731720,75.229156 
	C268.965332,82.522697 266.559570,89.546867 266.242523,96.664078 
	C265.892792,104.513634 266.849579,112.570602 268.395691,120.305672 
	C269.522858,125.944687 270.411621,132.249664 275.920197,136.506149 
	C275.954865,146.310623 275.983276,155.649002 276.006134,165.457031 
	C275.988159,172.290375 275.975769,178.654037 275.647888,184.822723 
	C273.539124,178.401978 271.755249,172.173477 269.945923,165.952362 
	C269.487366,164.375626 269.383453,162.425171 268.376740,161.320953 
	C259.815277,151.930130 260.639923,138.037750 252.430481,128.379196 
	C250.880875,126.556053 251.680878,122.645683 251.601776,119.692932 
	C251.544220,117.544388 252.320831,115.276337 251.870468,113.251778 
	C249.540710,102.778458 252.119400,92.889069 256.197205,83.595673 
	C259.536377,75.985657 256.841278,65.357239 267.284943,60.990059 
	C267.818512,60.963497 268.031525,60.951954 268.244568,60.940407 
z"/>
<path fill="#8C8078" opacity="1.000000" stroke="none" 
	d="
M312.009521,321.992584 
	C316.825317,313.679382 321.725189,305.413330 326.426422,297.035858 
	C329.407471,291.723694 332.092834,286.245636 334.944824,280.475708 
	C336.901855,279.332764 338.824860,278.556091 340.830078,277.428650 
	C341.593933,276.796539 342.825592,276.578827 342.866730,276.223297 
	C343.109222,274.127655 343.074646,271.999878 343.484680,269.350708 
	C345.670502,266.975067 347.750061,265.314301 349.288666,263.250305 
	C352.532837,258.898285 355.574860,254.388290 358.553406,249.847076 
	C364.145660,241.320816 370.830994,233.369431 373.000305,222.997238 
	C375.264252,222.797516 377.551849,222.739655 379.786957,222.366974 
	C383.774933,221.702026 385.911865,223.662094 386.964172,227.680634 
	C386.526001,228.487259 386.255249,228.754654 385.616058,229.059265 
	C384.179382,230.183670 382.858124,231.120789 382.103302,232.393784 
	C381.020386,234.220062 380.585785,236.438492 379.463318,238.232239 
	C374.888062,245.543579 370.125885,252.737564 365.488983,260.010742 
	C357.656433,272.296265 349.618042,284.460510 342.147949,296.963593 
	C337.319672,305.044983 333.349731,313.639221 328.995148,322.003662 
	C323.975006,322.000854 318.954895,321.998047 313.220062,321.995239 
	C312.505371,321.995239 312.009521,321.992584 312.009521,321.992584 
z"/>
<path fill="#A2958D" opacity="1.000000" stroke="none" 
	d="
M266.964417,61.005074 
	C256.841278,65.357239 259.536377,75.985657 256.197205,83.595673 
	C252.119400,92.889069 249.540710,102.778458 251.870468,113.251778 
	C252.320831,115.276337 251.544220,117.544388 251.601776,119.692932 
	C251.680878,122.645683 250.880875,126.556053 252.430481,128.379196 
	C260.639923,138.037750 259.815277,151.930130 268.376740,161.320953 
	C269.383453,162.425171 269.487366,164.375626 269.945923,165.952362 
	C271.755249,172.173477 273.539124,178.401978 275.654480,185.289398 
	C275.973145,197.637833 275.969757,209.324615 275.966370,221.011398 
	C273.647247,215.164871 270.831238,209.458359 269.134308,203.436523 
	C266.995880,195.847809 265.225677,188.064728 264.320282,180.246964 
	C263.557404,173.659607 260.908539,168.063492 257.985870,162.406326 
	C256.694489,159.906647 255.432678,157.389084 254.244843,154.838928 
	C245.628952,136.341675 239.156662,117.539291 245.888824,96.817093 
	C249.620697,85.330078 253.098480,73.756950 257.049072,62.346687 
	C258.282257,58.785011 261.757263,56.011887 261.283508,51.191025 
	C262.057953,50.617249 262.314880,50.499466 262.571777,50.381683 
	C262.571777,50.381683 262.579712,50.681206 262.511292,51.029350 
	C263.173401,51.884487 263.903931,52.391476 264.634460,52.898460 
	C265.177063,53.650909 265.719696,54.403358 266.132874,55.667801 
	C266.322876,57.118111 266.642303,58.056431 266.972260,59.329735 
	C266.976654,60.111500 266.970551,60.558289 266.964417,61.005074 
z"/>
<path fill="#7F746D" opacity="1.000000" stroke="none" 
	d="
M205.254028,61.267982 
	C207.469757,57.431248 210.052505,53.882149 212.392014,50.179359 
	C216.516830,43.650879 220.582932,37.080589 224.453278,30.400141 
	C225.194595,29.120556 224.920685,27.252789 225.051514,25.313730 
	C228.109970,26.134975 231.232071,27.298868 234.640472,28.630796 
	C234.276779,31.533005 234.150146,34.542587 232.882385,36.951660 
	C228.397919,45.473282 223.608063,53.839027 218.755234,62.159637 
	C216.766174,65.570068 214.105881,67.274780 210.312973,64.066910 
	C208.955780,62.919071 207.125717,62.330334 205.254028,61.267982 
z"/>
<path fill="#8F827B" opacity="1.000000" stroke="none" 
	d="
M227.459091,83.301086 
	C225.832642,80.715416 224.206192,78.129761 222.457108,75.248306 
	C223.988663,73.963409 226.359329,73.378387 227.181717,71.920189 
	C232.871216,61.831909 238.299881,51.593849 243.647446,41.318089 
	C244.525238,39.631355 244.590851,37.521969 245.050507,35.186913 
	C245.943344,35.279541 246.817490,35.793171 247.947571,36.880592 
	C249.125015,38.315872 250.046539,39.177361 250.897156,40.391411 
	C250.235016,42.277992 249.768280,43.874672 249.032822,45.336121 
	C243.197601,56.931450 237.373978,68.533836 231.358841,80.035782 
	C230.632721,81.424286 228.786301,82.226913 227.459091,83.301086 
z"/>
<path fill="#B2ABA7" opacity="1.000000" stroke="none" 
	d="
M271.013245,75.000809 
	C270.691284,72.200043 270.369324,69.399277 270.052795,66.170174 
	C271.799072,71.172173 274.758179,76.534515 275.065704,82.044853 
	C276.265747,103.544113 276.671692,125.088966 277.268463,146.619766 
	C277.429596,152.432678 277.222626,158.255814 276.856384,164.535217 
	C276.356018,164.993256 276.183868,164.990326 276.011688,164.987381 
	C275.983276,155.649002 275.954865,146.310623 275.940491,136.033936 
	C275.920898,121.370438 276.727783,107.579720 272.600464,94.181740 
	C272.271027,93.112358 272.052551,91.743515 272.431427,90.765129 
	C274.573700,85.233360 271.874237,80.212196 271.013245,75.000809 
z"/>
<path fill="#ADA199" opacity="1.000000" stroke="none" 
	d="
M276.006134,165.457031 
	C276.183868,164.990326 276.356018,164.993256 276.786377,164.999817 
	C277.119080,182.758530 277.232727,200.513580 277.255585,218.268723 
	C277.273529,232.211441 277.179230,246.154282 277.083954,260.566986 
	C276.687531,258.966644 276.341949,256.896423 275.989288,254.414001 
	C275.985779,252.285217 275.989349,250.568634 275.991425,248.091797 
	C275.986298,246.889618 275.982697,246.447708 275.979095,246.005798 
	C275.979675,237.985916 275.980255,229.966019 275.973572,221.478760 
	C275.969757,209.324615 275.973145,197.637833 275.969971,185.484375 
	C275.975769,178.654037 275.988159,172.290375 276.006134,165.457031 
z"/>
<path fill="#7F746D" opacity="1.000000" stroke="none" 
	d="
M223.975296,24.704613 
	C221.949097,24.194262 219.647751,23.452496 217.191574,22.405964 
	C219.257874,22.891865 221.479019,23.682531 223.975296,24.704613 
z"/>
<path fill="#9E9189" opacity="1.000000" stroke="none" 
	d="
M250.968063,40.038849 
	C250.046539,39.177361 249.125015,38.315872 248.118286,37.141724 
	C250.019653,37.880520 252.006210,38.931976 254.224426,40.219521 
	C254.456085,40.455605 254.218475,40.745922 253.786621,40.819298 
	C252.559189,40.608067 251.763626,40.323460 250.968063,40.038849 
z"/>
<path fill="#A69991" opacity="1.000000" stroke="none" 
	d="
M266.961731,58.994755 
	C266.642303,58.056431 266.322876,57.118111 266.209351,55.939468 
	C266.909424,56.600147 267.403595,57.501144 267.669342,58.705101 
	C267.440887,59.008057 266.961731,58.994755 266.961731,58.994755 
z"/>
<path fill="#72655E" opacity="1.000000" stroke="none" 
	d="
M213.805801,20.744408 
	C213.404770,20.794102 212.781891,20.671852 212.070892,20.336742 
	C212.516479,20.273411 213.050232,20.422939 213.805801,20.744408 
z"/>
<path fill="#A69991" opacity="1.000000" stroke="none" 
	d="
M264.497314,52.576481 
	C263.903931,52.391476 263.173401,51.884487 262.361572,51.034542 
	C262.973572,51.212555 263.666870,51.733528 264.497314,52.576481 
z"/>
<path fill="#8F827B" opacity="1.000000" stroke="none" 
	d="
M244.127716,33.707092 
	C243.889343,33.677132 243.510849,33.430134 243.170746,33.001377 
	C243.468613,33.043098 243.728088,33.266575 244.127716,33.707092 
z"/>
<path fill="#B2ABA7" opacity="1.000000" stroke="none" 
	d="
M270.049011,64.675232 
	C269.723938,64.454994 269.445190,63.901394 269.112457,63.038887 
	C269.404083,63.267269 269.749725,63.804562 270.049011,64.675232 
z"/>
<path fill="#B2ABA7" opacity="1.000000" stroke="none" 
	d="
M266.972260,59.329735 
	C266.961731,58.994755 267.440887,59.008057 267.680176,59.014076 
	C267.984161,59.448009 268.048828,59.875927 268.179016,60.622128 
	C268.031525,60.951954 267.818512,60.963497 267.284943,60.990059 
	C266.970551,60.558289 266.976654,60.111500 266.972260,59.329735 
z"/>
<path fill="#A69991" opacity="1.000000" stroke="none" 
	d="
M259.311798,45.653458 
	C259.108490,45.757309 258.651978,45.529488 257.858765,45.120468 
	C258.034241,45.066772 258.546448,45.194275 259.311798,45.653458 
z"/>
<path fill="#A69991" opacity="1.000000" stroke="none" 
	d="
M261.111359,47.679024 
	C260.976410,47.652027 260.681061,47.345295 260.202881,46.772583 
	C260.330322,46.804165 260.640625,47.101723 261.111359,47.679024 
z"/>
<path fill="#A69991" opacity="1.000000" stroke="none" 
	d="
M262.588928,50.188019 
	C262.314880,50.499466 262.057953,50.617249 261.399689,50.871880 
	C261.307861,50.699131 261.617340,50.389534 262.180450,49.862778 
	C262.434052,49.645615 262.606049,49.994350 262.588928,50.188019 
z"/>
<path fill="#988D84" opacity="1.000000" stroke="none" 
	d="
M235.154297,263.207397 
	C234.959061,263.198822 234.842194,263.120056 234.725311,263.041321 
	C234.894424,263.073273 235.063522,263.105255 235.154297,263.207397 
z"/>
<path fill="#837870" opacity="1.000000" stroke="none" 
	d="
M144.773071,179.955566 
	C139.997375,181.037903 134.912140,182.036636 129.434082,183.072144 
	C129.024170,182.632416 129.007095,182.155930 128.975708,181.321518 
	C133.073593,179.926743 137.185806,178.889862 141.634583,177.914276 
	C142.801941,178.607697 143.632751,179.239838 144.773071,179.955566 
z"/>
<path fill="#887D76" opacity="1.000000" stroke="none" 
	d="
M174.660614,175.008362 
	C172.276581,175.681931 169.534424,176.315735 166.391235,176.880554 
	C168.760986,176.197250 171.531738,175.582916 174.660614,175.008362 
z"/>
<path fill="#968981" opacity="1.000000" stroke="none" 
	d="
M189.793304,169.636795 
	C189.492294,170.079605 189.068161,170.380814 188.605865,170.602448 
	C188.557907,170.625443 188.283157,170.175369 188.113632,169.944794 
	C188.628860,169.787338 189.144073,169.629898 189.793304,169.636795 
z"/>
<path fill="#968981" opacity="1.000000" stroke="none" 
	d="
M372.539764,222.942795 
	C370.830994,233.369431 364.145660,241.320816 358.553406,249.847076 
	C355.574860,254.388290 352.532837,258.898285 349.288666,263.250305 
	C347.750061,265.314301 345.670502,266.975067 343.525879,268.923584 
	C343.210419,261.672089 343.205078,254.315536 343.542542,246.384842 
	C347.429871,242.435425 351.346313,239.362946 354.411682,235.597610 
	C357.332886,232.009384 360.961517,228.385666 360.010590,222.938477 
	C364.033478,222.921768 368.056335,222.905060 372.539764,222.942795 
z"/>
<path fill="#9E9189" opacity="1.000000" stroke="none" 
	d="
M359.583130,222.863754 
	C360.961517,228.385666 357.332886,232.009384 354.411682,235.597610 
	C351.346313,239.362946 347.429871,242.435425 343.584351,245.919891 
	C343.226379,242.067383 343.013031,238.100098 343.154327,234.145462 
	C343.310852,229.765076 345.027710,226.149765 349.551697,224.049591 
	C350.781036,223.719604 351.678741,223.464493 352.853333,222.987091 
	C355.138672,222.772903 357.147186,222.780975 359.583130,222.863754 
z"/>
<path fill="#8F827B" opacity="1.000000" stroke="none" 
	d="
M385.984497,229.022034 
	C386.255249,228.754654 386.526001,228.487259 387.020569,228.040436 
	C387.573120,233.448700 388.019257,239.032700 388.194794,244.625198 
	C388.345795,249.436188 388.187988,254.256882 388.140198,259.542725 
	C387.747040,258.914673 387.380463,257.817169 387.009949,255.893524 
	C386.665497,246.385590 386.324982,237.703796 385.984497,229.022034 
z"/>
<path fill="#70655F" opacity="1.000000" stroke="none" 
	d="
M388.712341,274.685059 
	C388.536865,274.412506 388.401001,273.798096 388.440735,273.080719 
	C388.661560,273.432892 388.706757,273.888092 388.712341,274.685059 
z"/>
<path fill="#8F827B" opacity="1.000000" stroke="none" 
	d="
M187.494095,134.495499 
	C187.514038,134.488525 187.474152,134.502472 187.494095,134.495499 
z"/>
<path fill="#887D76" opacity="1.000000" stroke="none" 
	d="
M104.128975,257.246368 
	C105.050323,257.707184 106.047821,258.491333 107.060532,259.609009 
	C106.118866,259.151611 105.161995,258.360626 104.128975,257.246368 
z"/>
<path fill="#887D76" opacity="1.000000" stroke="none" 
	d="
M101.174042,255.227402 
	C101.960678,255.402435 102.874367,255.878769 103.924606,256.647644 
	C103.141136,256.469696 102.221115,255.999207 101.174042,255.227402 
z"/>
<path fill="#887D76" opacity="1.000000" stroke="none" 
	d="
M99.082916,252.251862 
	C99.724144,252.715836 100.397926,253.511459 101.071190,254.630249 
	C100.418938,254.163437 99.767204,253.373459 99.082916,252.251862 
z"/>
<path fill="#887D76" opacity="1.000000" stroke="none" 
	d="
M98.830696,251.211166 
	C98.864204,251.091232 99.026611,251.532394 99.053413,251.766632 
	C98.884377,251.815582 98.790031,251.592316 98.830696,251.211166 
z"/>
<path fill="#796E66" opacity="1.000000" stroke="none" 
	d="
M71.041016,285.919189 
	C70.953323,285.870697 70.939621,285.702759 70.944168,285.282410 
	C71.163231,285.261566 71.214096,285.518158 71.041016,285.919189 
z"/>
<path fill="#968981" opacity="1.000000" stroke="none" 
	d="
M250.897156,40.391411 
	C251.763626,40.323460 252.559189,40.608067 253.663269,40.960629 
	C255.888763,45.666073 254.930161,49.948883 252.801758,54.324524 
	C248.964355,62.213638 245.181870,70.148232 241.847946,78.257668 
	C239.091003,84.963608 237.074432,91.971375 234.560883,98.783073 
	C234.236374,99.662483 232.898132,100.167839 231.688171,100.886276 
	C230.112839,95.308403 228.878815,89.690727 227.551941,83.687073 
	C228.786301,82.226913 230.632721,81.424286 231.358841,80.035782 
	C237.373978,68.533836 243.197601,56.931450 249.032822,45.336121 
	C249.768280,43.874672 250.235016,42.277992 250.897156,40.391411 
z"/>
<path fill="#837870" opacity="1.000000" stroke="none" 
	d="
M385.616028,229.059265 
	C386.324982,237.703796 386.665497,246.385590 386.998840,255.536224 
	C383.243256,254.573013 381.666779,256.830353 380.090271,259.725555 
	C373.522461,271.787170 366.921448,283.833832 360.105103,295.755890 
	C355.111450,304.490082 349.788727,313.037170 344.523804,321.613129 
	C344.113861,322.280914 343.002869,322.518311 342.012543,323.032257 
	C337.835693,322.741058 333.864014,322.373352 329.443726,322.004639 
	C333.349731,313.639221 337.319672,305.044983 342.147949,296.963593 
	C349.618042,284.460510 357.656433,272.296265 365.488983,260.010742 
	C370.125885,252.737564 374.888062,245.543579 379.463318,238.232239 
	C380.585785,236.438492 381.020386,234.220062 382.103302,232.393784 
	C382.858124,231.120789 384.179382,230.183670 385.616028,229.059265 
z"/>
<path fill="#988D84" opacity="1.000000" stroke="none" 
	d="
M311.550323,321.995392 
	C312.009521,321.992584 312.505371,321.995239 312.753296,321.997009 
	C310.613892,322.663940 308.226562,323.329132 305.255493,323.811157 
	C304.450684,323.394836 304.209991,323.184052 303.949677,322.995697 
	C303.225098,323.002838 302.500519,323.010010 301.415283,323.020782 
	C301.040466,322.856720 301.026306,322.689056 300.995056,322.269775 
	C304.348999,322.011475 307.720062,322.004852 311.550323,321.995392 
z"/>
<path fill="#A2958D" opacity="1.000000" stroke="none" 
	d="
M304.109985,323.174500 
	C304.209991,323.184052 304.450684,323.394836 304.829529,323.808105 
	C304.732056,323.794922 304.493042,323.583282 304.109985,323.174500 
z"/>
<path fill="#8F827B" opacity="1.000000" stroke="none" 
	d="
M201.404144,169.886108 
	C203.494736,169.107925 205.974762,168.404587 208.743866,167.891388 
	C206.619812,168.707993 204.206696,169.334473 201.404144,169.886108 
z"/>
<path fill="#8F827B" opacity="1.000000" stroke="none" 
	d="
M162.731232,264.184814 
	C162.781860,264.420074 162.563217,264.605011 162.135162,264.867126 
	C162.123810,264.697205 162.302536,264.427307 162.731232,264.184814 
z"/>
<path fill="#8F827B" opacity="1.000000" stroke="none" 
	d="
M212.268570,167.831573 
	C212.227875,167.608200 212.457642,167.420837 212.899384,167.147491 
	C212.903687,167.309479 212.712906,167.578156 212.268570,167.831573 
z"/>
<path fill="#9C8F87" opacity="1.000000" stroke="none" 
	d="
M275.765045,246.091156 
	C275.982697,246.447708 275.986298,246.889618 275.984406,247.662842 
	C275.836273,247.388275 275.693634,246.782394 275.765045,246.091156 
z"/>
<path fill="#ADA199" opacity="1.000000" stroke="none" 
	d="
M270.731720,75.229156 
	C271.874237,80.212196 274.573700,85.233360 272.431427,90.765129 
	C272.052551,91.743515 272.271027,93.112358 272.600464,94.181740 
	C276.727783,107.579720 275.920898,121.370438 275.934204,135.567841 
	C270.411621,132.249664 269.522858,125.944687 268.395691,120.305672 
	C266.849579,112.570602 265.892792,104.513634 266.242523,96.664078 
	C266.559570,89.546867 268.965332,82.522697 270.731720,75.229156 
z"/>
</svg>